# xmcd
#
# Track frame offsets:
# 150
# 11132
# 31970
# 44464
# 70189
# 85977
# 111000
# 124791
# 146654
# 162820
# 179932
# 188890
# 203328
# 218712
# 234500
# 245807
#
# Disc length: 3456 seconds
#
#
# Revision: 0
# Processed by: cddbd v1.5.1PL0 Copyright (c) Steve Scherf et al.
# Submitted via: FreeRIP 2.90 
#
DISCID=e60d7e10
DTITLE=Sharon Lewis with Under The Gun - Everything's Gonna Be Alright
DYEAR=2004
DGENRE=Blues
TTITLE0=Hush
TTITLE1=Mama's Children
TTITLE2=Everything's Gonna Be Alright
TTITLE3=Before The Sun Goes Down
TTITLE4=Habit Of The Heart
TTITLE5=Blues For Jesse
TTITLE6=Leaves Tremble On The Tree
TTITLE7=Bed Down
TTITLE8=Don't Bug Me
TTITLE9=If You've Got SomethingTo Say
TTITLE10=Original Girl
TTITLE11=Pass You By
TTITLE12=Tryin To Make It
TTITLE13=Jimmy Lee
TTITLE14=Qualified To Love You
TTITLE15=Hold On To Your Home
EXTD=Bluesfestradio.com
EXTT0=
EXTT1=
EXTT2=
EXTT3=
EXTT4=
EXTT5=
EXTT6=
EXTT7=
EXTT8=
EXTT9=
EXTT10=
EXTT11=
EXTT12=
EXTT13=
EXTT14=
EXTT15=
PLAYORDER=
